<svg xmlns="http://www.w3.org/2000/svg" width="30" height="38" viewBox="0 0 30 38">
    <g fill="none" fill-rule="evenodd">
        <g fill="#003DFF" fill-rule="nonzero" stroke="#003DFF" stroke-width=".5">
            <g>
                <g>
                    <path d="M13.458 0C6.038 0 0 5.849 0 13.038c0 8.922 12.044 22.02 12.557 22.573.481.52 1.322.518 1.803 0 .513-.554 12.557-13.651 12.557-22.573C26.917 5.848 20.879 0 13.458 0zm0 33.028C9.405 28.363 2.424 19.16 2.424 13.038c0-5.895 4.95-10.69 11.034-10.69 6.085 0 11.035 4.795 11.035 10.69 0 6.123-6.98 15.324-11.035 19.99z" transform="translate(-80 -812) translate(81 813) translate(.263)"/>
                    <path d="M13.5 7.579c-3.19 0-5.786 2.55-5.786 5.684 0 3.134 2.596 5.684 5.786 5.684 3.19 0 5.786-2.55 5.786-5.684 0-3.134-2.596-5.684-5.786-5.684zm0 9.095c-1.914 0-3.471-1.53-3.471-3.41 0-1.881 1.557-3.411 3.471-3.411 1.914 0 3.471 1.53 3.471 3.41 0 1.88-1.557 3.41-3.471 3.41z" transform="translate(-80 -812) translate(81 813) translate(.263)"/>
                </g>
            </g>
        </g>
    </g>
</svg>
