<svg xmlns="http://www.w3.org/2000/svg" width="15" height="15" viewBox="0 0 15 15">
    <g fill="none" fill-rule="evenodd">
        <g fill="#0432FF" fill-rule="nonzero" stroke-width=".7">
            <g>
                <g>
                    <g>
                        <path stroke="#0146FF" d="M4.915 6.322c.791 0 1.477-.311 2.037-.926.56-.614.844-1.366.844-2.235 0-.868-.284-1.62-.844-2.235C6.392.312 5.706 0 4.915 0c-.792 0-1.477.312-2.037.926-.56.615-.845 1.367-.845 2.235 0 .869.284 1.62.845 2.235.56.615 1.245.926 2.037.926zM3.373 1.47c.43-.472.934-.7 1.542-.7.607 0 1.111.228 1.541.7.43.472.639 1.025.639 1.691 0 .667-.209 1.22-.639 1.691-.43.472-.934.701-1.541.701-.608 0-1.112-.23-1.542-.7-.43-.472-.639-1.025-.639-1.692 0-.666.21-1.22.64-1.691z" transform="translate(-104 -496) translate(24 429) translate(80 67) translate(3 .5)"/>
                        <path stroke="#0432FF" d="M9.956 10.967c-.016-.255-.049-.534-.097-.829-.048-.297-.11-.577-.186-.834-.077-.265-.182-.526-.312-.777-.135-.26-.293-.487-.471-.674-.186-.195-.414-.352-.677-.466-.262-.114-.553-.172-.864-.172-.122 0-.24.055-.468.218l-.488.345c-.157.11-.369.212-.631.305-.256.09-.516.137-.772.137s-.516-.046-.772-.137c-.262-.093-.474-.195-.63-.305-.182-.127-.347-.243-.49-.345-.227-.163-.345-.218-.467-.218-.311 0-.602.058-.864.172-.263.114-.49.27-.677.466-.178.187-.336.413-.47.674-.13.25-.236.512-.313.777-.075.257-.138.537-.186.834-.048.294-.08.573-.097.83-.016.25-.024.511-.024.775 0 .685.199 1.24.59 1.649.387.403.898.608 1.52.608h5.76c.622 0 1.134-.205 1.52-.608.392-.41.59-.964.59-1.65 0-.264-.008-.525-.024-.775h0zm-1.049 1.867c-.255.267-.595.397-1.037.397H2.11c-.442 0-.781-.13-1.037-.396-.25-.262-.372-.62-.372-1.092 0-.246.007-.489.022-.722.015-.229.044-.48.088-.747.043-.264.098-.511.163-.735.063-.215.148-.428.255-.632.1-.196.217-.363.346-.498.12-.126.271-.23.45-.307.165-.072.35-.111.552-.117.025.014.068.041.14.092.143.103.31.22.493.35.207.144.474.275.792.388.326.115.658.174.988.174.33 0 .662-.059.988-.174.318-.113.585-.244.792-.389.188-.132.35-.246.494-.349.07-.05.114-.078.139-.092.201.006.387.045.552.117.179.077.33.18.45.307.129.135.245.302.346.498.107.204.192.417.255.632.065.224.12.471.163.735.044.267.074.519.088.747h0c.015.232.022.475.022.722 0 .473-.121.83-.372 1.091h0z" transform="translate(-104 -496) translate(24 429) translate(80 67) translate(3 .5)"/>
                    </g>
                </g>
            </g>
        </g>
    </g>
</svg>
